<svg width="24" height="24" viewBox="0 0 24 24" fill="none" xmlns="http://www.w3.org/2000/svg"><g clip-path="url(#clip0_214_1038)" fill="#4B4B4B"><path d="M13.027 6.23L7.257 12l5.77 5.769 1.905-1.905L11.068 12l3.864-3.864-1.905-1.905z"/><path d="M12 0C5.372 0 0 5.372 0 12s5.372 12 12 12 12-5.372 12-12S18.628 0 12 0zm7.152 19.152A10.08 10.08 0 0112 22.115a10.07 10.07 0 01-7.152-2.963A10.078 10.078 0 011.885 12c0-2.796 1.13-5.32 2.963-7.152A10.079 10.079 0 0112 1.885c2.796 0 5.32 1.13 7.152 2.963A10.08 10.08 0 0122.115 12a10.08 10.08 0 01-2.963 7.152z"/></g><defs><clipPath id="clip0_214_1038"><path fill="#fff" d="M0 0h24v24H0z"/></clipPath></defs></svg>