<svg width="14" height="14" viewBox="0 0 14 14" fill="none" xmlns="http://www.w3.org/2000/svg"><g clip-path="url(#clip0_209_730)" fill="#222"><path d="M1.183.523A1.785 1.785 0 012.447 0h8.419a1.784 1.784 0 011.787 1.787v.144h.393a.295.295 0 010 .59h-.393v1.771h.393a.295.295 0 010 .59h-.393v1.771h.393a.295.295 0 010 .59h-.393v1.77h.393a.295.295 0 010 .591h-.393v1.77h.393a.295.295 0 110 .59h-.393v.249A1.783 1.783 0 0110.866 14H2.447A1.784 1.784 0 01.66 12.213V1.787c0-.492.2-.941.523-1.264zm8.36 12.69h1.323a.994.994 0 00.707-.293.996.996 0 00.293-.707v-.248h-.624a.59.59 0 11.008-.59h.616V9.604h-.623a.589.589 0 11.006-.59h.617V7.243h-.622a.589.589 0 11.004-.59h.618v-1.77h-.621a.59.59 0 11.002-.59h.62V2.521h-.621a.589.589 0 110-.59h.62v-.145a.996.996 0 00-1-1H9.543v12.426zm-8.097-1c0 .278.112.525.293.707.183.182.43.293.708.293h6.8V.787h-6.8a.996.996 0 00-1 1v10.426z"/><path d="M2.822 3.093h5.221v.295h-5.22v-.295zm0 1.892h5.221v.295h-5.22v-.295zm0 1.893h5.221v.295h-5.22v-.295zm0 1.892h5.221v.295h-5.22V8.77zm0 1.892h5.221v.295h-5.22v-.295z"/></g><defs><clipPath id="clip0_209_730"><path fill="#fff" transform="matrix(-1 0 0 1 14 0)" d="M0 0h14v14H0z"/></clipPath></defs></svg>