<svg width="251" height="66" viewBox="0 0 251 66" fill="none" xmlns="http://www.w3.org/2000/svg"><path d="M61.935 42.475c-.185-.045-.379-.09-.576-.144-.016-.006-.03-.007-.045-.013 1.053-2.486 1.932-5.25 2.583-8.322 2.21-10.413-.88-19.8-8.47-25.754-4.77-3.74-10.82-5.73-16.667-5.73l-.266.002c-.08-.005-.163 0-.24-.016.012.005.023.012.035.018h-.044c5.663 2.759 9.388 7.605 10.51 13.647 3.142 2.491 6.478 7.231 4.676 15.72-.563 2.637-1.33 4.968-2.258 7.027-2.593-1.049-5.308-2.287-7.887-3.69-.364-.2-.729-.399-1.083-.603-.36-.204-.714-.412-1.069-.626-3.22-1.938-6.109-4.148-8.139-6.586a17.1 17.1 0 01-.767-.995 13.14 13.14 0 01-.68-1.035c-1.112-1.87-1.69-3.86-1.53-5.949.104-1.31.471-2.438 1.096-3.375.013-.019.022-.04.036-.06h-.001c.004-.005.006-.012.01-.018a4.475 4.475 0 00-.383-.174c-1.025-.413-2.263-.632-3.584-.632-.394 0-.797.02-1.2.058-2.316.214-4.648 1.05-6.512 2.312-.05.345-.083.694-.112 1.05-.292 3.782.461 8.503 3.992 13.476a33.347 33.347 0 001.5 1.928c2.001 2.35 4.653 4.735 8.14 7.08.355.244.723.481 1.097.724a68.433 68.433 0 005.531 3.157 82.54 82.54 0 004.573 2.15c.282.127.55.255.836.381a24.882 24.882 0 01-6.632 4.307 26.33 26.33 0 01-2.73 1.059l-.027.009a8.54 8.54 0 01-5.297 0l-.027-.01a26.358 26.358 0 01-2.73-1.058 25.042 25.042 0 01-6.003-3.784c-.208-.179-.425-.346-.626-.533a85.917 85.917 0 005.406-2.52 68.98 68.98 0 003.695-2.045c.23-.132.474-.265.697-.397l-.007-.006.02-.01a53.88 53.88 0 01-1.196-.867l-.094-.07a46.266 46.266 0 01-2.376-1.905 40.782 40.782 0 01-2.145-1.98 35.973 35.973 0 01-2.069-2.241c-.06-.07-.124-.142-.182-.212-2.579 1.403-5.293 2.641-7.887 3.69-.928-2.059-1.694-4.39-2.258-7.027-1.802-8.489 1.534-13.229 4.676-15.72.02-.015.035-.03.054-.043.452-.355.923-.68 1.413-.977.486-.296.991-.568 1.506-.811a16.845 16.845 0 015.546-1.525c.48-.048.957-.068 1.428-.068 1.602 0 3.142.263 4.497.811.476.19.913.413 1.311.67.379.238.723.505 1.03.802.306.29.577.607.806.951.66.952 1.039 2.108 1.146 3.453.16 2.088-.418 4.075-1.535 5.945 1.933 2.54 5.007 4.812 8.193 6.692 3.53-4.973 4.283-9.694 3.992-13.477a19.57 19.57 0 00-.112-1.049 17.326 17.326 0 00-.291-1.602 15.643 15.643 0 00-.447-1.603c-1.544-4.614-4.988-8.222-9.863-10.199A21.32 21.32 0 0033 3.196a22.054 22.054 0 00-2.594-.486 25.12 25.12 0 00-2.651-.194c-.17-.005-.34-.005-.515-.005-5.847 0-11.903 1.992-16.667 5.731-7.596 5.954-10.68 15.341-8.47 25.754a45.44 45.44 0 002.471 8.037c.038.094.072.193.11.287-.217.058-.42.107-.624.155-2.86.7-4.608 3.482-3.904 6.216.597 2.312 2.754 3.846 5.133 3.846.438 0 .884-.053 1.331-.16.141-.034 1.462-.36 3.526-.985a33.873 33.873 0 007.357 6.629c.387.258.775.506 1.164.745.13.08.26.153.39.23.26.154.518.31.778.456.155.087.31.168.465.253.234.127.467.255.7.376.168.087.335.167.502.25.22.11.44.221.66.325.172.082.343.158.514.236.213.097.427.196.64.289.173.075.344.145.516.217.208.087.417.174.624.257.173.068.344.133.516.199.203.077.407.155.608.228.172.062.34.121.51.18.13.045.26.094.388.137.05.017.1.03.148.047.08.026.16.056.238.08a19.781 19.781 0 0012.272 0c.078-.024.159-.054.238-.08.05-.017.1-.03.148-.047.128-.043.258-.092.387-.136l.511-.18c.201-.074.404-.151.607-.229.172-.066.344-.13.517-.2.207-.082.415-.169.623-.256.172-.072.344-.143.517-.217.213-.093.426-.191.64-.288.171-.079.342-.155.514-.237.22-.104.44-.215.66-.325.167-.083.334-.163.502-.25.233-.12.466-.249.7-.376.155-.085.31-.166.465-.253.259-.146.517-.3.775-.454.131-.078.262-.152.394-.232a33.79 33.79 0 002.276-1.522c.354-.258.703-.52 1.053-.792a33.89 33.89 0 005.187-5.06c2.068.626 3.385.951 3.53.985.447.107.889.16 1.326.16 2.385 0 4.54-1.534 5.138-3.846.705-2.734-1.044-5.516-3.91-6.216zm35.537-31.291H91.36V30h-4.448V11.184h-6.08V7.216h16.64v3.968zM115.945 30h-8.064c-2.56 0-4.362-.437-5.408-1.312-1.024-.896-1.536-2.464-1.536-4.704V7.216h15.008v3.968h-10.56v5.344h7.392l-.32 3.968h-7.072v3.168c0 .896.203 1.515.608 1.856.406.341 1.142.512 2.208.512h7.744V30zm19.183-18.816h-6.112V30h-4.448V11.184h-6.08V7.216h16.64v3.968zm20.17 6.368v1.728c0 3.819-.726 6.592-2.176 8.32-1.43 1.728-3.734 2.592-6.912 2.592-3.179 0-5.483-.864-6.912-2.592-1.408-1.728-2.112-4.533-2.112-8.416V17.52c0-3.541.714-6.176 2.144-7.904 1.45-1.728 3.733-2.592 6.848-2.592 3.136 0 5.44.875 6.912 2.624 1.472 1.75 2.208 4.384 2.208 7.904zm-4.448 1.632V18c0-2.048-.256-3.68-.768-4.896-.598-1.408-1.878-2.112-3.84-2.112-1.984 0-3.275.704-3.872 2.112-.491 1.152-.736 2.784-.736 4.896v1.184c0 2.752.384 4.608 1.152 5.568.298.405.736.757 1.312 1.056.597.277 1.301.416 2.112.416.832 0 1.536-.139 2.112-.416.576-.277 1.024-.619 1.344-1.024.32-.405.565-.939.736-1.6.298-1.045.448-2.379.448-4zm23.153-8h-6.112V30h-4.448V11.184h-6.08V7.216h16.64v3.968zM192.477 30h-8.064c-2.56 0-4.363-.437-5.408-1.312-1.024-.896-1.536-2.464-1.536-4.704V7.216h15.008v3.968h-10.56v5.344h7.392l-.32 3.968h-7.072v3.168c0 .896.202 1.515.608 1.856.405.341 1.141.512 2.208.512h7.744V30zm5.911-2.68c.213.2.32.633.32 1.3s-.107 1.107-.32 1.32c-.2.213-.634.32-1.3.32-.667 0-1.107-.107-1.32-.32-.214-.213-.32-.653-.32-1.32s.106-1.1.32-1.3c.213-.213.653-.32 1.32-.32.666 0 1.1.107 1.3.32zm8.998-1.5l2.36-.02c-.013.107-.027.3-.04.58-.013.28-.027.473-.04.58 0 .093-.013.247-.04.46-.027.213-.06.373-.1.48-.027.093-.067.22-.12.38-.24.693-.893 1.24-1.96 1.64a6.38 6.38 0 01-2.14.36c-.733 0-1.4-.12-2-.36-.6-.24-1.073-.547-1.42-.92-.787-.827-1.18-2.373-1.18-4.64 0-2.28.393-3.833 1.18-4.66.347-.373.82-.68 1.42-.92s1.267-.36 2-.36c1.44 0 2.533.36 3.28 1.08.747.72 1.12 1.72 1.12 3h-2.36c0-.587-.147-1.02-.44-1.3-.293-.293-.84-.44-1.64-.44-.787 0-1.313.247-1.58.74-.253.493-.38 1.233-.38 2.22v1.04c0 1.587.307 2.56.92 2.92.28.173.647.26 1.1.26.453 0 .82-.04 1.1-.12.293-.093.5-.247.62-.46.133-.213.22-.42.26-.62.04-.213.067-.52.08-.92zm10.711-.98V23.8c0-.987-.147-1.74-.44-2.26-.28-.52-.873-.78-1.78-.78-1.467 0-2.2.987-2.2 2.96v1.04c0 2.12.733 3.18 2.2 3.18.947 0 1.567-.353 1.86-1.06.24-.56.36-1.24.36-2.04zm2.6-.6c0 2.467-.467 4.12-1.4 4.96-.787.72-1.927 1.08-3.42 1.08-1.907 0-3.193-.56-3.86-1.68-.627-1.027-.94-2.48-.94-4.36 0-1.76.313-3.14.94-4.14.693-1.12 1.953-1.68 3.78-1.68 1.84 0 3.113.493 3.82 1.48.72.973 1.08 2.42 1.08 4.34zm4.819 3.08c.214.2.32.633.32 1.3s-.106 1.107-.32 1.32c-.2.213-.633.32-1.3.32-.666 0-1.106-.107-1.32-.32-.213-.213-.32-.653-.32-1.32s.107-1.1.32-1.3c.214-.213.654-.32 1.32-.32.667 0 1.1.107 1.3.32zm5.659 2.68l-2.6.02V14.96h2.6V30zm7.673 0h-1.62c-.987 0-1.74-.293-2.26-.88-.507-.587-.76-1.287-.76-2.1v-6h-1.1v-1.98h1.1V16.8h2.6v2.24h1.84v1.98h-1.84v5.84c0 .627.3.94.9.94h1.14V30zm10.451 0h-1.74l-.8-1.38-2.78 1.5c-1.547 0-2.587-.56-3.12-1.68a6.466 6.466 0 01-.56-1.76c-.093-.64-.14-1.3-.14-1.98 0-.693.007-1.2.02-1.52.013-.333.047-.713.1-1.14.053-.44.127-.807.22-1.1.107-.293.253-.593.44-.9a2.36 2.36 0 01.68-.76c.6-.413 1.38-.62 2.34-.62h2.74v-3.7h2.6V30zm-2.6-3.64V21h-1.98c-.733 0-1.247.28-1.54.84-.28.56-.42 1.4-.42 2.52 0 1.107.133 1.887.4 2.34.28.453.8.68 1.56.68l1.98-1.02zM92.44 59h-3.22l-2.78-5.28h-2V59h-2.78V47.82c0-1.067.247-1.84.74-2.32.493-.493 1.32-.74 2.48-.74h2.36c1.413 0 2.533.433 3.36 1.3.84.853 1.26 1.94 1.26 3.26 0 .96-.253 1.793-.76 2.5-.493.693-1.107 1.173-1.84 1.44L92.44 59zm-5.38-7.6c.587 0 1.067-.2 1.44-.6.387-.413.58-.92.58-1.52 0-.613-.187-1.107-.56-1.48-.36-.373-.847-.56-1.46-.56h-1.38c-.827 0-1.24.42-1.24 1.26v2.9h2.62zm17.066 7.6h-5.04c-1.6 0-2.727-.273-3.38-.82-.64-.56-.96-1.54-.96-2.94V44.76h9.38v2.48h-6.6v3.34h4.62l-.2 2.48h-4.42v1.98c0 .56.127.947.38 1.16.253.213.713.32 1.38.32h4.84V59zm9.929-5.52h2.58c0 1.813-.453 3.207-1.36 4.18-.906.973-2.186 1.46-3.84 1.46-3.64 0-5.46-2.14-5.46-6.42v-1.2c0-3.373.934-5.487 2.8-6.34.734-.347 1.62-.52 2.66-.52 1.52 0 2.754.42 3.7 1.26.96.827 1.44 2.027 1.44 3.6h-2.6c-.146-.787-.406-1.38-.78-1.78-.373-.4-.96-.6-1.76-.6-.933 0-1.626.293-2.08.88-.32.413-.506 1.12-.56 2.12-.026.32-.04.753-.04 1.3v1.24c0 1.533.214 2.58.64 3.14.44.56 1.12.84 2.04.84.934 0 1.574-.253 1.92-.76.36-.52.594-1.32.7-2.4zM129.784 59h-3.22l-2.78-5.28h-2V59h-2.78V47.82c0-1.067.246-1.84.74-2.32.493-.493 1.32-.74 2.48-.74h2.36c1.413 0 2.533.433 3.36 1.3.84.853 1.26 1.94 1.26 3.26 0 .96-.254 1.793-.76 2.5-.494.693-1.107 1.173-1.84 1.44l3.18 5.74zm-5.38-7.6c.586 0 1.066-.2 1.44-.6.386-.413.58-.92.58-1.52 0-.613-.187-1.107-.56-1.48-.36-.373-.847-.56-1.46-.56h-1.38c-.827 0-1.24.42-1.24 1.26v2.9h2.62zM142.89 59h-2.9l-.8-2.46h-4.78l-.78 2.46h-2.9l4.56-13.04c.2-.453.42-.767.66-.94.253-.173.56-.26.92-.26s.646.08.86.24c.226.16.426.48.6.96L142.89 59zm-4.34-4.8l-1.68-5.64-1.76 5.64h3.44zm15.554-6.96h-3.82V59h-2.78V47.24h-3.8v-2.48h10.4v2.48zM159.049 59h-2.78V44.76h2.78V59zm14.414-14.24v12.8c0 .44-.133.82-.4 1.14-.267.307-.58.46-.94.46-.92 0-1.673-.533-2.26-1.6l-4.92-7.7V59h-2.78V44.76h2.68l5.84 9.32v-9.32h2.78zm2.005 7.54v-1.76c0-1.853.486-3.3 1.46-4.34.973-1.04 2.32-1.56 4.04-1.56 1.72 0 3.1.52 4.14 1.56.733.733 1.1 1.833 1.1 3.3h-2.6c0-1.587-.847-2.38-2.54-2.38-.507 0-.94.1-1.3.3-.347.187-.607.407-.78.66-.174.253-.307.627-.4 1.12a8.627 8.627 0 00-.16 1.24c-.014.333-.02.78-.02 1.34v1.14c.013.187.033.5.06.94.04.427.093.733.16.92.08.187.186.427.32.72.146.293.326.5.54.62.546.347 1.166.52 1.86.52 1.16 0 1.98-.493 2.46-1.48v-.96h-1.72v-2.32h4.1v4.3c-.414.973-1.067 1.707-1.96 2.2-.894.493-1.907.74-3.04.74-2.014 0-3.474-.56-4.38-1.68-.894-1.133-1.34-2.847-1.34-5.14z" fill="#fff"/></svg>