<svg width="185" height="35" viewBox="0 0 185 35" fill="none" xmlns="http://www.w3.org/2000/svg"><g clip-path="url(#clip0_396_10)"><path d="M7.531 30.813c-.604-.48-1.177-1-1.718-1.563l-.344-.063c-.688-1.041-1.052-2.218-1.094-3.53l.063-.75-.157-.345c.334-.854.448-1.77.344-2.75a2.48 2.48 0 01-.25-1.125c-.02-.75-.02-1.49 0-2.218l-.281-.938c.062-1.25.041-2.5-.063-3.75a33.83 33.83 0 00-.437-2.187 7.536 7.536 0 00-.781-2l-1.188-.969A15.12 15.12 0 01.437 6.312l.594-.062c1.375.042 2.657.323 3.844.844a38.873 38.873 0 015.031-1.532 176.31 176.31 0 015.219-1.125l.344.094a65.794 65.794 0 014.656-.718A57.144 57.144 0 0024.844 3l.437.406c.959.23 1.865.563 2.719 1a9.57 9.57 0 012.375 1.657l.188.437.593.5v.344l-.093.531.187.5-.094.344c-.166.458-.479.635-.937.531l-.688.25a43.315 43.315 0 00-2.562 9.313 46.296 46.296 0 01-2.469 9.406l-.438.281-1.343 2.125-.688.094-1.187-.938-.938-1.125-1.625-.156-.187-.281a28.685 28.685 0 00-2.313-.157l-.75.844h-.594l-1.03-.937h-.5a1.478 1.478 0 01-.938.187l-.344-.093c-.917.229-1.77.541-2.563.937l-1.187 1.531-.344.282zm1.938-5.22l3.094-.624c.27-.896.437-1.834.5-2.813l-.25-3.75.093-.437-.594-.25c-.854.041-1.708.156-2.562.343l-.625.594-.063.344-.78.063-.095.343.094.532-.094.406.282.687-.094.875.156.5-.062.532c.229.854.364 1.74.406 2.656h.594zm10.687-.78c.23-1.146.521-2.26.875-3.344.375-1.084.594-2.219.657-3.407-.396-.187-.855-.25-1.375-.187l-.407.094-.343-.094c-.459-.104-.865-.135-1.22-.094l-.343.094c-.396-.167-.844-.219-1.344-.156l-.187.406c0 .896.031 1.781.093 2.656l-.093.344c.187.792.302 1.646.343 2.563l-.062.875a47.69 47.69 0 013.406.25zm-7.593-10.438c.229-.23.312-.52.25-.875l-.094-4.094-.25-.344h-.781c-.73.167-1.48.313-2.25.438a8.48 8.48 0 00-2.188.594c-.25 1.75-.02 3.458.688 5.125.854-.23 1.645-.396 2.375-.5.75-.125 1.5-.24 2.25-.344zm10.062-.25c.292-1.042.5-2.115.625-3.219.146-1.104.302-2.198.469-3.281a.807.807 0 00-.75-.188h-1.282c-1.479.063-2.843.323-4.093.782l-1.188.25-.093.5c.104.52.187 1.041.25 1.562l-.157 2.313.063.594 1.718.062.344-.063c1.313.271 2.677.5 4.094.688zM52.65 34.219a2.199 2.199 0 01-.938-1.188 20.35 20.35 0 01-.843-3.781 24.046 24.046 0 01-.157-4.094l.157-3.25-.157-1.625c-1.375.167-2.541.594-3.5 1.282l-.53.843-.75 1.032-.688-.094-.532.093a4.935 4.935 0 01-2.125-.78c-.687-.73-.968-1.605-.843-2.626.166-.52.218-1.093.156-1.718-.23-1.438-.469-2.855-.719-4.25A17.618 17.618 0 0039.931 10a13.934 13.934 0 00-2.281-1.438 26.414 26.414 0 013.75-.437l3.906.594c.98-.292 1.948-.531 2.907-.719a11.323 11.323 0 002.812-1l.094-1.188c.062-1.541-.396-2.854-1.375-3.937l-1.438-.688a8.19 8.19 0 013.157-.843c.75.333 1.5.594 2.25.781.77.167 1.53.385 2.28.656l.094.938c-.229.229-.375.52-.437.875l-.5.437c0 .667-.094 1.292-.281 1.875l.093.594h.438a190.87 190.87 0 012.656-.844 40.522 40.522 0 012.719-.781l-.094-.344 1.125.25c1.646.063 3.104.396 4.375 1A24.256 24.256 0 0169.9 7.875l.25.75-.438.969c-1.02.041-1.895.437-2.624 1.187a23.287 23.287 0 00-1.594 4.719 11.396 11.396 0 01-2.094 4.531 6.43 6.43 0 01-2.469.844l-.687-.344-.344-.593a9.748 9.748 0 00-3.219-.532h-.593a2.2 2.2 0 00-1.22.344l-.156.688.157.78-.25.595c.166.291.229.604.187.937.125 1.917.209 3.854.25 5.813a26.427 26.427 0 01-.531 3l.094.937a3.533 3.533 0 01-.688 1.563l-1.281.156zm-1.625-16.844l.188-.781c-.167-.98-.25-2.01-.25-3.094l.062-.406-.156-3.25-.438-.094c-.791.292-1.583.51-2.375.656a8.496 8.496 0 00-2.312.719l-.25.594-.438.344v.343c.125.73.271 1.469.438 2.219l-.094.344c.167 1.146.458 2.26.875 3.344l.313.093a16.78 16.78 0 012.187-.562c.77-.146 1.52-.302 2.25-.469zm7.688-.875h.437l.5-.156.438.093c.395-1.208.718-2.437.968-3.687.271-1.25.49-2.531.657-3.844a2.227 2.227 0 00-1.282-.187l-.437.094-1.375-.094c-1.354 0-2.625.229-3.813.687a24.387 24.387 0 00-.281 5.906l-.156.5c.291.292.437.615.437.97l2.032.062 1.624-.344h.25zm23.65 16.188l-1.126-.5a33.968 33.968 0 00-2.218-1.282c-.396-.416-.646-.875-.75-1.375l.343-.781-1.124-.75 1.624-.344.438.094.594-.281c.5-.625.906-1.302 1.218-2.032.313-.75.646-1.49 1-2.218.396-.917.75-1.782 1.063-2.594.313-.833.552-1.677.719-2.531a5.78 5.78 0 01.593 2.218c-.25 2-.479 3.99-.687 5.97-.27 1.25-.552 2.53-.844 3.843l.25 2.063c-.333.27-.698.437-1.094.5zm8.343-.594c0-.688-.312-1.23-.937-1.625l-.25-.438a8.65 8.65 0 01-.5-2.406 12.12 12.12 0 00-.438-2.531c-.062-1.542-.344-2.907-.844-4.094a3.883 3.883 0 01-1.187-.531l.25-.407.938.094a15.133 15.133 0 003.75-1.031c.229-.292.593-.375 1.093-.25a8.474 8.474 0 012.406-.719 22.486 22.486 0 002.47-.562l.687.156c.562-.292 1.218-.406 1.969-.344.333.167.697.25 1.093.25l1.219.188a5.155 5.155 0 012.281 1.093 18.41 18.41 0 001.625 1.72l.188 1.03-.781 1.094-.594.344c-.521 1.02-1.104 2-1.75 2.938a14.5 14.5 0 00-1.594 3.03l-.344.25-.25.438-1.531.438-.938-.344-.687.406-.063-.312a7.62 7.62 0 00-1.374.062c-.459-.166-.97-.218-1.532-.156a5.018 5.018 0 01-2.156.094l-.406 1.093-.344.25-.25.438h-.531l-.407.25-.28.094zm4.719-4.875a3.05 3.05 0 011.438-.344l.593.188.594.156c.396-.5.542-1.125.438-1.875l-.094-.594.687-4.531c-.333-.271-.76-.354-1.281-.25-.917.166-1.833.323-2.75.468a8.779 8.779 0 00-2.531.813l-.344.688c.104.916.23 1.833.375 2.75.146.895.25 1.822.313 2.78l.593.095a5.672 5.672 0 011.969-.344zm-16.219-6.75l-.344-.157-.093-.343a4.684 4.684 0 00.343-1.782l-.343-.53a28.97 28.97 0 00-2.813-1.345l-.156-.687a3.533 3.533 0 012.125-.094l1.031-1.094a5.075 5.075 0 012.188-.75 48.719 48.719 0 012.406-.187l.5.844-.406.687-.688.594c-.166.333-.333.677-.5 1.031l-.531.407a6.718 6.718 0 01-1.531 2.656l-.438.437-.75.313zM87.3 18.53c-1.5-.583-2.604-1.614-3.313-3.093h.594l.344.187.406-.094c.354.396.813.542 1.375.438a8.76 8.76 0 001.781-.688l.344.094a27.082 27.082 0 012.813-1.094 92.463 92.463 0 012.906-.875l.094-.437-.094-.344.188-.688-.188-.406.094-.687v-1.53h-.594c-.98.27-1.885.75-2.719 1.437a87.686 87.686 0 00-1.219 2.813l-1.093-.25-.344.093-.344-.531c-.396-.042-.708-.208-.937-.5l-.094-.438-.406-.593-.532-.344-.093-1.188.531-.593.938-.156c.229-.813.427-1.594.593-2.344a17.65 17.65 0 00.344-2.438l-.438-.937L87.644 3 87.3 1.875l.438-.094.343.188c.23-.23.51-.313.844-.25.75.333 1.563.541 2.438.625.874.083 1.624.469 2.25 1.156.229.396.312.875.25 1.438l-.657.53a4.797 4.797 0 00-.687 1.782l.343.094a20.733 20.733 0 002.032-1.032l.093-.343c-.166-.73-.28-1.49-.343-2.282-.063-.812-.292-1.53-.688-2.156l-1.031-.406V.781l.344-.437L93.8.5c1.48.063 2.98.063 4.5 0 .458.354.635.781.531 1.281a4.7 4.7 0 00-.687 2.5 18.15 18.15 0 012.656.5l.406-.093.532.187.343-.094c.229.23.511.344.844.344l.344-.094a3.598 3.598 0 011.687.844l.188 1.031c-.563.521-1.25.75-2.063.688l-2.281.25-.344-.063-.437.157-.438-.157-1.094.407a17.215 17.215 0 00-.562 2.156 40.05 40.05 0 00-.375 2.187l.344.188a61.53 61.53 0 012.093-.469 101.03 101.03 0 002.157-.469 12.4 12.4 0 003 .625 5.733 5.733 0 012.812 1c.292.459.407 1 .344 1.625l-.781.75a58.54 58.54 0 01-4.25-.406l-.344.156-.344.25-.5-.156-.437.094c-.563-.23-1.136-.49-1.719-.781-2.27.166-4.438.593-6.5 1.28a91.638 91.638 0 00-6.125 2.313zm-7.156-7.187l-.438-.25-.094-.5.282-1.469-.875-.75-.063-.438a4.075 4.075 0 01-1.562-.843l-.25-.25-.094-.782.625-.343 1.438.25.343-.5c1.084-.75 2.334-1.125 3.75-1.125h1.469l.75.343.188.594-.344.594-1.282 1.031c-.354.688-.75 1.344-1.187 1.969-.417.625-.823 1.25-1.219 1.875-.5.063-.979.26-1.437.594zm65.025 18.687a56.732 56.732 0 00-6.282-2.656c-2.125-.77-4.385-1.156-6.781-1.156a68.16 68.16 0 01-4.594.156l-.875.25c-1.541.292-3.041.552-4.5.781a15.1 15.1 0 00-4.125 1.282l-.5.843h-.781l-1.781-1.281-1.281-1.031a9.368 9.368 0 01-.5-2.719l.687-.063c.438.334.948.532 1.531.594l.407.25.781-.156.781.063c2.209-.459 4.438-.896 6.688-1.313 2.25-.417 4.541-.77 6.875-1.063l1.968-.093.313.093.437-.093.844.093c1.313.167 2.427-.083 3.344-.75l.344-.593h.437a5.673 5.673 0 012.656 1 7.26 7.26 0 002.719 1.125 26 26 0 013.219 2.625l.187 1.187-.687 2.375c-.458.167-.969.25-1.531.25zm-21.344-16.468a4.408 4.408 0 01-1.875-.594 22.257 22.257 0 01-2.656-2.375l-.25-.844c-.229-.063-.313-.23-.25-.5.625-.23 1.281-.406 1.968-.531.563.354 1.188.5 1.875.437a45.04 45.04 0 013.625-1.406 17.559 17.559 0 003.532-1.656l.093-.344.25-.688.782-.843c.458-.167.968-.219 1.531-.157 1.479.063 2.802.438 3.969 1.125 1.166.667 2.343 1.365 3.531 2.094.521.563.812 1.24.875 2.032l-.094.687.094.594a4.375 4.375 0 01-2.219.594l-1.969-.438a77.603 77.603 0 00-5.437.75 74.833 74.833 0 00-5.313 1.063l-.531.5c-.458.27-.969.437-1.531.5zm46.744 19.218l-.438-.281c-.229-.27-.312-.635-.25-1.094-.021-3.896-.021-7.791 0-11.687a20.491 20.491 0 00-.937-1.625l.156-.5c-.292-.23-.375-.521-.25-.875l.844.343-.063-.406.063-2.062a9.975 9.975 0 01-.156-2.625c.062-.917-.136-1.719-.594-2.406l.687-.25c1.313.333 2.625.729 3.938 1.187.271-.292.437-.604.5-.938l-.25-.25.344-.53c.5-.73.843-1.47 1.031-2.22h-.531c-1.084.355-2.167.73-3.25 1.125l-.688-.25-.437.063-.657-1.188a3.708 3.708 0 01-1.312-.593l-.156.687a42.444 42.444 0 01-1.5 5.25 41.695 41.695 0 01-2.094 4.813l-1.375.5-.406-.938h-.625a76.71 76.71 0 01-3.594 1.469 16.716 16.716 0 00-.25 4.781l.187.5-.187 1.032v.593l.344.094a54.474 54.474 0 002.906-1.469 62.18 62.18 0 012.312-1.187c-.396-.792-.771-1.5-1.125-2.125a11.04 11.04 0 00-1.187-1.782l1.281-.093c1.375 0 2.521.51 3.438 1.531a41.64 41.64 0 011.718 3.313c.209.125.292.333.25.625l-.093.406.156.781-1.188.25-1.375-.781-.593-.594c-1.48 1.146-2.99 2.25-4.532 3.313a146.789 146.789 0 00-4.531 3.187l-.187.406-1.094.094-.688-.406-.25-.344-1.375-.688-.437-.687.344-.688-.094-.437.437-.063.532-.593.156-.438.687-.25 1.032.407c.291-.667.437-1.407.437-2.22a104.05 104.05 0 00-.094-11.687c0-1.25-.427-2.323-1.281-3.219l.344-.187L153.1 7.25v-.344c2.188.292 4.323-.073 6.406-1.093l.094-.594c-.458-.584-.708-1.271-.75-2.063-.229-.104-.323-.333-.281-.687A12.622 12.622 0 00156.694.5h.875c.958.125 1.937.25 2.937.375 1 .104 1.865.469 2.594 1.094.188.458.25.968.188 1.531l-.438.438-.344.843.438.094a2.523 2.523 0 011.719-.438c1.145.23 2.26.573 3.343 1.032l-.281-.782.531-.25.063-.343-.063-.5.157-.438c.854.521 1.687.834 2.5.938 1.25-.292 2.5-.594 3.75-.907 1.25-.312 2.51-.635 3.781-.968a19.22 19.22 0 013.75 1.375l.187.406-.625 1.031a10.71 10.71 0 00-2.125.938 21.032 21.032 0 01-2.218 2.468 9.297 9.297 0 00-1.563 2.063l-.5.344-.25.594c1.313.333 2.625.718 3.938 1.156a12.85 12.85 0 013.656 1.844 5.5 5.5 0 011.375 2.53 16.495 16.495 0 01-.469 3.438 7.045 7.045 0 01-1.5 2.969l-.594.438-1.187 1.093a30.35 30.35 0 00-3.094.875 161.094 161.094 0 01-2.906-1.812l-.75-.594-.188 1.875.094.344c0 1.208-.115 2.343-.344 3.406a14.216 14.216 0 01-1.031 3.094 2.772 2.772 0 01-1.531.687zm8.031-12.31c.625-.959.885-2.094.781-3.407-.062-.895-.406-1.687-1.031-2.375a23.818 23.818 0 00-3.156-1.624l-.781-.782a5.067 5.067 0 01-1.282-.687 18.36 18.36 0 00-.312 2.719 122.8 122.8 0 00-.031 2.75v1.375c.229.687.427 1.364.593 2.03.625.584 1.396.813 2.313.688 1.083 0 2.052-.229 2.906-.687zm-19.344-5.282a19.26 19.26 0 013.782-1.28 7.052 7.052 0 00.406-2.032l-.344-.094c-.729.23-1.5.469-2.312.719-.792.25-1.532.583-2.219 1l.094 1.781.593-.094zm-.5-4.25a35.16 35.16 0 012.25-.624c.771-.209 1.532-.49 2.282-.844l.437-2.219h-.531a94.29 94.29 0 01-3.031.813c-1 .25-1.959.604-2.875 1.062l-.063.344.844.437.25 1.094.437-.063z" fill="#222"/></g><defs><clipPath id="clip0_396_10"><path fill="#fff" d="M0 0h185v35H0z"/></clipPath></defs></svg>