<svg width="24" height="24" viewBox="0 0 24 24" fill="none" xmlns="http://www.w3.org/2000/svg"><g clip-path="url(#clip0_198_147)"><path d="M12 0C5.373 0 0 5.373 0 12s5.373 12 12 12 12-5.373 12-12S18.627 0 12 0zm3.338 7.493h-1.27c-.996 0-1.189.474-1.189 1.169v1.531h2.375l-.309 2.399H12.88v6.154h-2.477v-6.154H8.331v-2.399h2.071V8.424c0-2.053 1.254-3.17 3.085-3.17.877 0 1.631.065 1.851.094v2.145z" fill="#4B4B4B"/></g><defs><clipPath id="clip0_198_147"><path fill="#fff" d="M0 0h24v24H0z"/></clipPath></defs></svg>