<svg width="24" height="24" viewBox="0 0 24 24" fill="none" xmlns="http://www.w3.org/2000/svg"><path d="M22.627 4.632C21.397 3.639 17.06 2.859 12 2.859c-5.06 0-9.397.78-10.627 1.773C.243 5.543 0 9.662 0 12s.243 6.457 1.373 7.368c1.23.993 5.567 1.773 10.627 1.773 5.06 0 9.397-.78 10.627-1.773C23.757 18.457 24 14.338 24 12s-.243-6.457-1.373-7.368zm-7.026 7.48l-5.571 3.326a.133.133 0 01-.132.002.133.133 0 01-.067-.115v-6.65a.131.131 0 01.199-.113l5.57 3.325a.132.132 0 010 .226z" fill="#4B4B4B"/></svg>