<svg width="14" height="14" viewBox="0 0 14 14" fill="none" xmlns="http://www.w3.org/2000/svg">
<g clip-path="url(#clip0_209_730)">
<path d="M1.18332 0.523469C1.50549 0.20073 1.95483 0 2.44702 0H10.8656C11.3579 0 11.8071 0.20073 12.1292 0.523469C12.4521 0.845715 12.6529 1.29486 12.6528 1.78741V1.9314H13.0458C13.2088 1.9314 13.3408 2.06361 13.3408 2.22674C13.3408 2.38943 13.2087 2.52161 13.0458 2.52161H12.6528V4.29234H13.0458C13.2088 4.29234 13.3408 4.42452 13.3408 4.58743C13.3408 4.75013 13.2087 4.88255 13.0458 4.88255H12.6528V6.65325H13.0458C13.2088 6.65325 13.3408 6.78546 13.3408 6.94816C13.3408 7.11107 13.2087 7.24303 13.0458 7.24303H12.6528V9.01395H13.0458C13.2088 9.01395 13.3408 9.14637 13.3408 9.3091C13.3408 9.47201 13.2087 9.60397 13.0458 9.60397H12.6528V11.3749H13.0458C13.2088 11.3749 13.3408 11.5069 13.3408 11.6698C13.3408 11.8327 13.2087 11.9649 13.0458 11.9649H12.6528V12.2128C12.6529 12.7051 12.4521 13.1543 12.1292 13.4765C11.8071 13.7992 11.3579 14.0002 10.8656 14H2.44702C1.95483 14.0002 1.50549 13.7992 1.18332 13.4765C0.860613 13.1543 0.659746 12.7051 0.659966 12.2128V1.78741C0.659746 1.29486 0.860613 0.845715 1.18332 0.523469ZM9.54261 13.2135H10.8656C11.1433 13.2135 11.3909 13.1022 11.5732 12.9204C11.7549 12.7381 11.866 12.4906 11.8663 12.2128V11.9649H11.2421C11.1393 12.1372 10.9512 12.2533 10.7358 12.2533C10.41 12.2533 10.146 11.9891 10.146 11.6635C10.146 11.3377 10.41 11.0737 10.7358 11.0737C10.9567 11.0737 11.1487 11.1952 11.2499 11.3749H11.8663V9.60395H11.2431C11.1404 9.77733 10.9519 9.89395 10.7358 9.89395C10.4101 9.89395 10.146 9.62976 10.146 9.30418C10.146 8.97857 10.4101 8.71437 10.7358 8.71437C10.956 8.71437 11.1476 8.83542 11.2489 9.01392H11.8663V7.243H11.2441C11.1416 7.41751 10.9525 7.53479 10.7358 7.53479C10.41 7.53479 10.146 7.27059 10.146 6.94523C10.146 6.61918 10.41 6.35502 10.7358 6.35502C10.9553 6.35502 11.1464 6.47519 11.2479 6.65323H11.8663V4.88253H11.245C11.1426 5.05747 10.9532 5.17543 10.7358 5.17543C10.4101 5.17543 10.146 4.91148 10.146 4.58566C10.146 4.26027 10.4101 3.99585 10.7358 3.99585C10.9546 3.99585 11.1454 4.11559 11.247 4.29231H11.8663V2.52161H11.246C11.144 2.69765 10.9539 2.8163 10.7358 2.8163C10.41 2.8163 10.146 2.5521 10.146 2.22674C10.146 1.90069 10.41 1.63671 10.7358 1.63671C10.9539 1.63671 11.1439 1.75555 11.246 1.9314H11.8663V1.78741C11.8661 1.5094 11.7549 1.26194 11.5732 1.07942C11.3909 0.897805 11.1433 0.786762 10.8657 0.786543H9.54264V13.2135H9.54261ZM1.44629 12.2128C1.44651 12.4906 1.55769 12.7381 1.73941 12.9204C1.92169 13.1022 2.16942 13.2135 2.44704 13.2135H9.24762V0.786543H2.44702C2.1694 0.786762 1.92166 0.897805 1.73939 1.07942C1.55766 1.26194 1.44651 1.5094 1.44626 1.78741L1.44629 12.2128Z" fill="#222222"/>
<path d="M2.82223 3.09271H8.04297V3.38759H2.82223V3.09271Z" fill="#222222"/>
<path d="M2.82223 4.98514H8.04297V5.28004H2.82223V4.98514Z" fill="#222222"/>
<path d="M2.82223 6.87759H8.04297V7.1725H2.82223V6.87759Z" fill="#222222"/>
<path d="M2.82223 8.77002H8.04297V9.06492H2.82223V8.77002Z" fill="#222222"/>
<path d="M2.82223 10.6624H8.04297V10.9571H2.82223V10.6624Z" fill="#222222"/>
</g>
<defs>
<clipPath id="clip0_209_730">
<rect width="14" height="14" fill="white" transform="matrix(-1 0 0 1 14 0)"/>
</clipPath>
</defs>
</svg>
