<svg width="250" height="62" viewBox="0 0 250 62" fill="none" xmlns="http://www.w3.org/2000/svg">
<path d="M61.9346 40.4751C61.7502 40.4299 61.5563 40.384 61.359 40.3311C61.3434 40.3251 61.3298 40.3235 61.3136 40.3175C62.367 37.8314 63.2463 35.0687 63.8968 31.9955C66.1063 21.5833 63.0176 12.1958 55.4268 6.24201C50.6578 2.5027 44.6067 0.511219 38.7597 0.511219C38.6696 0.511219 38.5824 0.513159 38.4944 0.513669C38.4142 0.509159 38.3307 0.513669 38.2542 0.497559C38.2658 0.503099 38.2768 0.509678 38.289 0.515728C38.2743 0.515728 38.2598 0.515728 38.2452 0.516248C43.9075 3.27459 47.6327 8.1212 48.7545 14.1625C51.8965 16.6542 55.2331 21.3939 53.4309 29.883C52.8679 32.5197 52.1006 34.8509 51.1731 36.91C48.5797 35.8611 45.8647 34.6229 43.2861 33.2195C42.9215 33.0201 42.5575 32.8212 42.203 32.6173C41.8434 32.4133 41.489 32.2044 41.1344 31.9909C37.9148 30.0528 35.025 27.8432 32.9952 25.4051C32.7232 25.0748 32.4654 24.7448 32.2277 24.4095C31.98 24.0697 31.7564 23.7248 31.548 23.3753C30.4355 21.5057 29.858 19.5142 30.0183 17.426C30.1219 16.1158 30.489 14.9884 31.114 14.0508C31.1271 14.0322 31.136 14.01 31.1497 13.9913H31.1486C31.1528 13.9854 31.1552 13.9787 31.1592 13.9732C31.0378 13.9097 30.9069 13.8519 30.7755 13.7985C29.7508 13.3856 28.5126 13.1671 27.1917 13.1671C26.7981 13.1671 26.3952 13.1868 25.9919 13.2251C23.6756 13.4391 21.3442 14.2744 19.4795 15.5373C19.4308 15.8817 19.397 16.2312 19.3678 16.5862C19.0762 20.3694 19.829 25.0895 23.3599 30.063C23.588 30.3832 23.8263 30.7039 24.0784 31.0242C24.3262 31.345 24.5885 31.6653 24.8603 31.991C26.8614 34.341 29.5131 36.7258 33.0001 39.0713C33.3546 39.3144 33.7232 39.5522 34.0972 39.7954C34.4663 40.0281 34.8405 40.2613 35.2241 40.4943C36.5791 41.3201 38.0454 42.1409 39.6286 42.9521C41.1644 43.7381 42.6962 44.4445 44.2008 45.1021C44.4827 45.2291 44.7511 45.3564 45.0366 45.4829C42.9263 47.3983 40.6508 48.7901 38.4049 49.7896C37.487 50.207 36.569 50.5571 35.6758 50.8486C35.6668 50.8516 35.6571 50.854 35.6481 50.8576C33.9306 51.419 32.0689 51.419 30.3514 50.8576C30.3423 50.854 30.3332 50.8516 30.3237 50.8486C29.4303 50.557 28.5125 50.207 27.5946 49.7896C25.5674 48.8878 23.5229 47.6431 21.5909 46.0056C21.3834 45.8269 21.1664 45.6596 20.9651 45.4728C22.7299 44.7216 24.5483 43.8826 26.371 42.9522C27.6888 42.277 28.9068 41.5936 30.066 40.9077C30.2962 40.7759 30.5398 40.6424 30.7633 40.511C30.7609 40.5094 30.7588 40.5075 30.7564 40.5054C30.7623 40.5019 30.7695 40.4979 30.7755 40.4943C30.3652 40.2058 29.9672 39.9172 29.5796 39.6277C29.5484 39.6046 29.5166 39.5814 29.4859 39.5578C28.7679 39.02 28.0922 38.4802 27.4487 37.9394C27.3353 37.8443 27.2215 37.7486 27.1101 37.653C26.5876 37.2048 26.0941 36.7557 25.6202 36.3069C25.3983 36.0959 25.1781 35.885 24.9646 35.6719C24.6418 35.3507 24.3312 35.03 24.0316 34.7086C23.6388 34.2857 23.2542 33.8612 22.8961 33.4317C22.8366 33.3612 22.7722 33.2901 22.7138 33.2196C20.1352 34.6229 17.4207 35.8612 14.8268 36.9101C13.8993 34.8511 13.1325 32.5198 12.5685 29.8832C10.7668 21.394 14.1032 16.6543 17.2453 14.1627C17.2651 14.1481 17.2796 14.1335 17.2987 14.1195C17.7509 13.7645 18.2217 13.4391 18.7122 13.1431C19.1981 12.8465 19.7031 12.5747 20.2178 12.3319C21.9756 11.5067 23.884 10.9819 25.7637 10.8071C26.2445 10.7589 26.7205 10.7392 27.1917 10.7392C28.794 10.7392 30.3338 11.0015 31.6889 11.55C32.1647 11.7393 32.6018 11.9627 33.0001 12.2202C33.3787 12.4583 33.7232 12.7252 34.0293 13.0217C34.3355 13.3128 34.6073 13.6285 34.8355 13.9733C35.4963 14.925 35.8747 16.0812 35.9816 17.4262C36.1422 19.5143 35.5642 21.5008 34.4474 23.3704C36.3799 25.9103 39.4539 28.1833 42.6399 30.063C46.1706 25.0895 46.9229 20.3694 46.632 16.5862C46.6027 16.2312 46.5684 15.8817 46.5202 15.5373C46.4472 14.9931 46.3499 14.4589 46.2286 13.9346C46.1072 13.3857 45.9566 12.8515 45.782 12.3318C44.2375 7.71824 40.7943 4.1099 35.9186 2.13299C34.9765 1.75427 34.0002 1.4387 33.0001 1.19584C32.1501 0.981858 31.2855 0.822269 30.4063 0.709999C29.5322 0.598229 28.6484 0.535199 27.7547 0.516119C27.585 0.511089 27.4149 0.511089 27.2401 0.511089C21.393 0.511089 15.337 2.50257 10.5729 6.24188C2.97722 12.1959 -0.106472 21.5834 2.10311 31.9955C2.72998 34.9548 3.57187 37.6196 4.57398 40.033C4.61227 40.1271 4.64591 40.2258 4.68471 40.3199C4.46725 40.3779 4.26371 40.4267 4.06029 40.475C1.20025 41.1746 -0.548492 43.9571 0.155981 46.6914C0.753203 49.0032 2.9098 50.5374 5.28903 50.5374C5.72666 50.5374 6.17332 50.484 6.61998 50.3773C6.76101 50.343 8.08165 50.0178 10.1457 49.3914C11.7726 51.3583 13.5254 53.0289 15.3373 54.452C15.6866 54.724 16.0367 54.9864 16.3911 55.2437C16.7601 55.5105 17.1293 55.7729 17.5034 56.0206C17.8901 56.2794 18.2784 56.5267 18.6672 56.7654C18.797 56.8454 18.9269 56.9184 19.0574 56.9955C19.3162 57.15 19.5754 57.3056 19.8348 57.4522C19.9899 57.5392 20.145 57.6199 20.3005 57.7045C20.5343 57.8318 20.7674 57.9602 21.0005 58.0811C21.1681 58.1678 21.3349 58.2479 21.502 58.3315C21.722 58.4413 21.9426 58.552 22.1616 58.6563C22.3338 58.7379 22.5045 58.8138 22.6758 58.8914C22.8892 58.9892 23.1032 59.0878 23.3163 59.1805C23.4889 59.2555 23.6601 59.3255 23.8318 59.3974C24.0404 59.4845 24.2487 59.5721 24.4562 59.6547C24.629 59.7231 24.8001 59.7881 24.9718 59.8536C25.1753 59.9312 25.3787 60.0092 25.5805 60.0823C25.7519 60.1442 25.9205 60.2031 26.0902 60.262C26.2191 60.3072 26.35 60.3556 26.478 60.3989C26.5272 60.4155 26.5772 60.429 26.6265 60.4457C26.7056 60.4718 26.7861 60.5016 26.8642 60.5267C30.8502 61.8274 35.1499 61.8274 39.1358 60.5267C39.2144 60.5016 39.2949 60.4718 39.374 60.4452C39.4234 60.429 39.4733 60.4155 39.5225 60.3989C39.65 60.3556 39.7803 60.3072 39.9089 60.2625C40.079 60.2029 40.2487 60.1442 40.4204 60.0823C40.6213 60.0093 40.8242 59.9317 41.0271 59.8541C41.1993 59.7881 41.371 59.7231 41.5443 59.6542C41.7513 59.5721 41.9586 59.4851 42.1666 59.3979C42.3394 59.326 42.5111 59.2553 42.6843 59.1805C42.8968 59.0878 43.1102 58.9895 43.3238 58.8925C43.495 58.8138 43.6662 58.7379 43.8384 58.6563C44.058 58.552 44.278 58.4408 44.4986 58.331C44.6652 58.2479 44.8319 58.1678 44.9996 58.0811C45.2327 57.9607 45.4659 57.8318 45.6996 57.705C45.8547 57.6199 46.0097 57.5392 46.1653 57.4522C46.4237 57.3062 46.6815 57.1516 46.9398 56.9979C47.0711 56.9194 47.2021 56.846 47.3335 56.7654C47.7223 56.5267 48.11 56.2789 48.4972 56.0206C48.8708 55.7728 49.24 55.5105 49.6091 55.2437C49.9635 54.9864 50.313 54.724 50.6629 54.452C52.4741 53.029 54.2225 51.3583 55.8498 49.3914C57.9183 50.0178 59.2346 50.343 59.3801 50.3773C59.8268 50.4842 60.2688 50.5374 60.7059 50.5374C63.0907 50.5374 65.2468 49.0032 65.844 46.6914C66.5485 43.9571 64.7998 41.1746 61.9346 40.4751Z" fill="#222222"/>
<path d="M97.472 9.18393H91.36V27.9999H86.912V9.18393H80.832V5.21593H97.472V9.18393ZM115.945 27.9999H107.881C105.321 27.9999 103.519 27.5626 102.473 26.6879C101.449 25.7919 100.937 24.2239 100.937 21.9839V5.21593H115.945V9.18393H105.385V14.5279H112.777L112.457 18.4959H105.385V21.6639C105.385 22.5599 105.588 23.1786 105.993 23.5199C106.399 23.8612 107.135 24.0319 108.201 24.0319H115.945V27.9999ZM135.128 9.18393H129.016V27.9999H124.568V9.18393H118.488V5.21593H135.128V9.18393ZM155.298 15.5519V17.2799C155.298 21.0986 154.572 23.8719 153.122 25.5999C151.692 27.3279 149.388 28.1919 146.21 28.1919C143.031 28.1919 140.727 27.3279 139.298 25.5999C137.89 23.8719 137.186 21.0666 137.186 17.1839V15.5199C137.186 11.9786 137.9 9.34393 139.33 7.61593C140.78 5.88793 143.063 5.02393 146.178 5.02393C149.314 5.02393 151.618 5.8986 153.09 7.64793C154.562 9.39723 155.298 12.0319 155.298 15.5519ZM150.85 17.1839V15.9999C150.85 13.9519 150.594 12.3199 150.082 11.1039C149.484 9.69593 148.204 8.99193 146.242 8.99193C144.258 8.99193 142.967 9.69593 142.37 11.1039C141.879 12.2559 141.634 13.8879 141.634 15.9999V17.1839C141.634 19.9359 142.018 21.7919 142.786 22.7519C143.084 23.1572 143.522 23.5092 144.098 23.8079C144.695 24.0852 145.399 24.2239 146.21 24.2239C147.042 24.2239 147.746 24.0852 148.322 23.8079C148.898 23.5306 149.346 23.1892 149.666 22.7839C149.986 22.3786 150.231 21.8452 150.402 21.1839C150.7 20.1386 150.85 18.8052 150.85 17.1839ZM174.003 9.18393H167.891V27.9999H163.443V9.18393H157.363V5.21593H174.003V9.18393ZM192.477 27.9999H184.413C181.853 27.9999 180.05 27.5626 179.005 26.6879C177.981 25.7919 177.469 24.2239 177.469 21.9839V5.21593H192.477V9.18393H181.917V14.5279H189.309L188.989 18.4959H181.917V21.6639C181.917 22.5599 182.119 23.1786 182.525 23.5199C182.93 23.8612 183.666 24.0319 184.733 24.0319H192.477V27.9999ZM198.388 25.3199C198.601 25.5199 198.708 25.9532 198.708 26.6199C198.708 27.2866 198.601 27.7266 198.388 27.9399C198.188 28.1532 197.754 28.2599 197.088 28.2599C196.421 28.2599 195.981 28.1532 195.768 27.9399C195.554 27.7266 195.448 27.2866 195.448 26.6199C195.448 25.9532 195.554 25.5199 195.768 25.3199C195.981 25.1066 196.421 24.9999 197.088 24.9999C197.754 24.9999 198.188 25.1066 198.388 25.3199ZM207.386 23.8199L209.746 23.7999C209.733 23.9066 209.719 24.0999 209.706 24.3799C209.693 24.6599 209.679 24.8532 209.666 24.9599C209.666 25.0532 209.653 25.2066 209.626 25.4199C209.599 25.6332 209.566 25.7932 209.526 25.8999C209.499 25.9932 209.459 26.1199 209.406 26.2799C209.166 26.9732 208.513 27.5199 207.446 27.9199C206.766 28.1599 206.053 28.2799 205.306 28.2799C204.573 28.2799 203.906 28.1599 203.306 27.9199C202.706 27.6799 202.233 27.3732 201.886 26.9999C201.099 26.1732 200.706 24.6266 200.706 22.3599C200.706 20.0799 201.099 18.5266 201.886 17.6999C202.233 17.3266 202.706 17.0199 203.306 16.7799C203.906 16.5399 204.573 16.4199 205.306 16.4199C206.746 16.4199 207.839 16.7799 208.586 17.4999C209.333 18.2199 209.706 19.2199 209.706 20.4999H207.346C207.346 19.9132 207.199 19.4799 206.906 19.1999C206.613 18.9066 206.066 18.7599 205.266 18.7599C204.479 18.7599 203.953 19.0066 203.686 19.4999C203.433 19.9932 203.306 20.7332 203.306 21.7199V22.7599C203.306 24.3466 203.613 25.3199 204.226 25.6799C204.506 25.8532 204.873 25.9399 205.326 25.9399C205.779 25.9399 206.146 25.8999 206.426 25.8199C206.719 25.7266 206.926 25.5732 207.046 25.3599C207.179 25.1466 207.266 24.9399 207.306 24.7399C207.346 24.5266 207.373 24.2199 207.386 23.8199ZM218.097 22.8399V21.7999C218.097 20.8132 217.95 20.0599 217.657 19.5399C217.377 19.0199 216.784 18.7599 215.877 18.7599C214.41 18.7599 213.677 19.7466 213.677 21.7199V22.7599C213.677 24.8799 214.41 25.9399 215.877 25.9399C216.824 25.9399 217.444 25.5866 217.737 24.8799C217.977 24.3199 218.097 23.6399 218.097 22.8399ZM220.697 22.2399C220.697 24.7066 220.23 26.3599 219.297 27.1999C218.51 27.9199 217.37 28.2799 215.877 28.2799C213.97 28.2799 212.684 27.7199 212.017 26.5999C211.39 25.5732 211.077 24.1199 211.077 22.2399C211.077 20.4799 211.39 19.0999 212.017 18.0999C212.71 16.9799 213.97 16.4199 215.797 16.4199C217.637 16.4199 218.91 16.9132 219.617 17.8999C220.337 18.8732 220.697 20.3199 220.697 22.2399ZM225.516 25.3199C225.73 25.5199 225.836 25.9532 225.836 26.6199C225.836 27.2866 225.73 27.7266 225.516 27.9399C225.316 28.1532 224.883 28.2599 224.216 28.2599C223.55 28.2599 223.11 28.1532 222.896 27.9399C222.683 27.7266 222.576 27.2866 222.576 26.6199C222.576 25.9532 222.683 25.5199 222.896 25.3199C223.11 25.1066 223.55 24.9999 224.216 24.9999C224.883 24.9999 225.316 25.1066 225.516 25.3199ZM231.175 27.9999L228.575 28.0199V12.9599H231.175V27.9999ZM238.848 27.9999H237.228C236.241 27.9999 235.488 27.7066 234.968 27.1199C234.461 26.5332 234.208 25.8332 234.208 25.0199V19.0199H233.108V17.0399H234.208V14.7999H236.808V17.0399H238.648V19.0199H236.808V24.8599C236.808 25.4866 237.108 25.7999 237.708 25.7999H238.848V27.9999ZM249.299 27.9999H247.559L246.759 26.6199L243.979 28.1199C242.432 28.1199 241.392 27.5599 240.859 26.4399C240.592 25.8932 240.406 25.3066 240.299 24.6799C240.206 24.0399 240.159 23.3799 240.159 22.6999C240.159 22.0066 240.166 21.4999 240.179 21.1799C240.192 20.8466 240.226 20.4666 240.279 20.0399C240.332 19.5999 240.406 19.2332 240.499 18.9399C240.606 18.6466 240.752 18.3466 240.939 18.0399C241.126 17.7199 241.352 17.4666 241.619 17.2799C242.219 16.8666 242.999 16.6599 243.959 16.6599H246.699V12.9599H249.299V27.9999ZM246.699 24.3599V18.9999H244.719C243.986 18.9999 243.472 19.2799 243.179 19.8399C242.899 20.3999 242.759 21.2399 242.759 22.3599C242.759 23.4666 242.892 24.2466 243.159 24.6999C243.439 25.1532 243.959 25.3799 244.719 25.3799L246.699 24.3599ZM92.44 56.9999H89.22L86.44 51.7199H84.44V56.9999H81.66V45.8199C81.66 44.7532 81.9067 43.9799 82.4 43.4999C82.8933 43.0066 83.72 42.7599 84.88 42.7599H87.24C88.6533 42.7599 89.7733 43.1932 90.6 44.0599C91.44 44.9132 91.86 45.9999 91.86 47.3199C91.86 48.2799 91.6067 49.1132 91.1 49.8199C90.6067 50.5132 89.9933 50.9932 89.26 51.2599L92.44 56.9999ZM87.06 49.3999C87.6467 49.3999 88.1267 49.1999 88.5 48.7999C88.8867 48.3866 89.08 47.8799 89.08 47.2799C89.08 46.6666 88.8933 46.1732 88.52 45.7999C88.16 45.4266 87.6733 45.2399 87.06 45.2399H85.68C84.8533 45.2399 84.44 45.6599 84.44 46.4999V49.3999H87.06ZM104.126 56.9999H99.0859C97.4859 56.9999 96.3593 56.7266 95.7059 56.1799C95.0659 55.6199 94.7459 54.6399 94.7459 53.2399V42.7599H104.126V45.2399H97.5259V48.5799H102.146L101.946 51.0599H97.5259V53.0399C97.5259 53.5999 97.6526 53.9866 97.9059 54.1999C98.1593 54.4132 98.6193 54.5199 99.2859 54.5199H104.126V56.9999ZM114.055 51.4799H116.635C116.635 53.2932 116.182 54.6866 115.275 55.6599C114.369 56.6332 113.089 57.1199 111.435 57.1199C107.795 57.1199 105.975 54.9799 105.975 50.6999V49.4999C105.975 46.1266 106.909 44.0132 108.775 43.1599C109.509 42.8132 110.395 42.6399 111.435 42.6399C112.955 42.6399 114.189 43.0599 115.135 43.8999C116.095 44.7266 116.575 45.9266 116.575 47.4999H113.975C113.829 46.7132 113.569 46.1199 113.195 45.7199C112.822 45.3199 112.235 45.1199 111.435 45.1199C110.502 45.1199 109.809 45.4132 109.355 45.9999C109.035 46.4132 108.849 47.1199 108.795 48.1199C108.769 48.4399 108.755 48.8732 108.755 49.4199V50.6599C108.755 52.1932 108.969 53.2399 109.395 53.7999C109.835 54.3599 110.515 54.6399 111.435 54.6399C112.369 54.6399 113.009 54.3866 113.355 53.8799C113.715 53.3599 113.949 52.5599 114.055 51.4799ZM129.784 56.9999H126.564L123.784 51.7199H121.784V56.9999H119.004V45.8199C119.004 44.7532 119.25 43.9799 119.744 43.4999C120.237 43.0066 121.064 42.7599 122.224 42.7599H124.584C125.997 42.7599 127.117 43.1932 127.944 44.0599C128.784 44.9132 129.204 45.9999 129.204 47.3199C129.204 48.2799 128.95 49.1132 128.444 49.8199C127.95 50.5132 127.337 50.9932 126.604 51.2599L129.784 56.9999ZM124.404 49.3999C124.99 49.3999 125.47 49.1999 125.844 48.7999C126.23 48.3866 126.424 47.8799 126.424 47.2799C126.424 46.6666 126.237 46.1732 125.864 45.7999C125.504 45.4266 125.017 45.2399 124.404 45.2399H123.024C122.197 45.2399 121.784 45.6599 121.784 46.4999V49.3999H124.404ZM142.89 56.9999H139.99L139.19 54.5399H134.41L133.63 56.9999H130.73L135.29 43.9599C135.49 43.5066 135.71 43.1932 135.95 43.0199C136.203 42.8466 136.51 42.7599 136.87 42.7599C137.23 42.7599 137.516 42.8399 137.73 42.9999C137.956 43.1599 138.156 43.4799 138.33 43.9599L142.89 56.9999ZM138.55 52.1999L136.87 46.5599L135.11 52.1999H138.55ZM154.104 45.2399H150.284V56.9999H147.504V45.2399H143.704V42.7599H154.104V45.2399ZM159.049 56.9999H156.269V42.7599H159.049V56.9999ZM173.463 42.7599V55.5599C173.463 55.9999 173.33 56.3799 173.063 56.6999C172.796 57.0066 172.483 57.1599 172.123 57.1599C171.203 57.1599 170.45 56.6266 169.863 55.5599L164.943 47.8599V56.9999H162.163V42.7599H164.843L170.683 52.0799V42.7599H173.463ZM175.468 50.2999V48.5399C175.468 46.6866 175.954 45.2399 176.928 44.1999C177.901 43.1599 179.248 42.6399 180.968 42.6399C182.688 42.6399 184.068 43.1599 185.108 44.1999C185.841 44.9332 186.208 46.0332 186.208 47.4999H183.608C183.608 45.9132 182.761 45.1199 181.068 45.1199C180.561 45.1199 180.128 45.2199 179.768 45.4199C179.421 45.6066 179.161 45.8266 178.988 46.0799C178.814 46.3332 178.681 46.7066 178.588 47.1999C178.494 47.6932 178.441 48.1066 178.428 48.4399C178.414 48.7732 178.408 49.2199 178.408 49.7799C178.408 50.3399 178.408 50.7199 178.408 50.9199C178.421 51.1066 178.441 51.4199 178.468 51.8599C178.508 52.2866 178.561 52.5932 178.628 52.7799C178.708 52.9666 178.814 53.2066 178.948 53.4999C179.094 53.7932 179.274 53.9999 179.488 54.1199C180.034 54.4666 180.654 54.6399 181.348 54.6399C182.508 54.6399 183.328 54.1466 183.808 53.1599V52.1999H182.088V49.8799H186.188V54.1799C185.774 55.1532 185.121 55.8866 184.228 56.3799C183.334 56.8732 182.321 57.1199 181.188 57.1199C179.174 57.1199 177.714 56.5599 176.808 55.4399C175.914 54.3066 175.468 52.5932 175.468 50.2999Z" fill="#222222"/>
</svg>
